<svg xmlns="http://www.w3.org/2000/svg" version="1.1" xmlns:xlink="http://www.w3.org/1999/xlink" xmlns:svgjs="http://svgjs.dev/svgjs" width="1000" height="623" viewBox="0 0 1000 623"><g transform="matrix(1,0,0,1,-0.6060606060606233,0.2522267206477409)"><svg viewBox="0 0 396 247" data-background-color="#c8c8c8" preserveAspectRatio="xMidYMid meet" height="623" width="1000" xmlns="http://www.w3.org/2000/svg" xmlns:xlink="http://www.w3.org/1999/xlink"><g id="tight-bounds" transform="matrix(1,0,0,1,0.2400000000000091,-0.09999999999999432)"><svg viewBox="0 0 395.52 247.2" height="247.2" width="395.52"><g><svg></svg></g><g><svg viewBox="0 0 395.52 247.2" height="247.2" width="395.52"><g transform="matrix(1,0,0,1,120.80302921348314,47.215199999999996)"><svg viewBox="0 0 153.9139415730337 152.7696" height="152.7696" width="153.9139415730337"><g><svg viewBox="0 0 153.9139415730337 152.7696" height="152.7696" width="153.9139415730337"><g><svg viewBox="0 0 153.9139415730337 152.7696" height="152.7696" width="153.9139415730337"><g><svg viewBox="0 0 153.9139415730337 152.7696" height="152.7696" width="153.9139415730337"><g id="textblocktransform"><svg viewBox="0 0 153.9139415730337 152.7696" height="152.7696" width="153.9139415730337" id="textblock"><g><svg viewBox="0 0 153.9139415730337 152.7696" height="152.7696" width="153.9139415730337"><g transform="matrix(1,0,0,1,0,0)"><svg width="153.9139415730337" viewBox="1.75 -26.100000381469727 26.899999618530273 26.700000762939453" height="152.7696" data-palette-color="#6b7280"><path d="M13.3 0.6L13.3 0.6Q9.8 0.6 7.2-1.2 4.6-3 3.18-6.03 1.75-9.05 1.75-12.7L1.75-12.7Q1.75-16.45 3.38-19.5 5-22.55 8.05-24.33 11.1-26.1 15.35-26.1L15.35-26.1Q19.65-26.1 22.6-24.3 25.55-22.5 27.1-19.45 28.65-16.4 28.65-12.7L28.65-12.7 28.65 0 21.8 0 21.8-4.25 21.7-4.25Q20.95-2.9 19.83-1.8 18.7-0.7 17.1-0.05 15.5 0.6 13.3 0.6ZM15.25-5.25L15.25-5.25Q17.25-5.25 18.7-6.25 20.15-7.25 20.93-8.97 21.7-10.7 21.7-12.8L21.7-12.8Q21.7-14.9 20.93-16.57 20.15-18.25 18.7-19.25 17.25-20.25 15.25-20.25L15.25-20.25Q13.2-20.25 11.73-19.25 10.25-18.25 9.47-16.57 8.7-14.9 8.7-12.8L8.7-12.8Q8.7-10.7 9.47-8.97 10.25-7.25 11.73-6.25 13.2-5.25 15.25-5.25Z" opacity="1" transform="matrix(1,0,0,1,0,0)" fill="#6b7280" class="undefined-text-0" data-fill-palette-color="primary" id="text-0"></path></svg></g></svg></g></svg></g></svg></g></svg></g></svg></g></svg></g><path d="M92.416 41.215L92.416 0 339.616 0 339.616 247.2 92.416 247.2 92.416 205.985 106.193 205.985 106.193 233.423 325.839 233.423 325.839 13.777 106.193 13.777 106.193 41.215Z" fill="#6b7280" stroke="transparent" data-fill-palette-color="primary"></path></svg></g><defs><mask id="debe5247-5f89-4fe5-87ff-b51e88bb8360"><rect width="640" height="400" fill="white"></rect><rect width="208.65646623496764" height="254.74118208" fill="black" y="-3.7705910399999993" x="93.43176688251617" id="transform-me"></rect></mask><mask id="35dc35f2-2a5f-413c-8946-13dca217b8eb"><rect width="640" height="400" fill="white"></rect><rect width="208.65646623496764" height="254.74118208" fill="black" y="-3.7705910399999993" x="93.43176688251617" id="transform-me"></rect></mask></defs></svg><rect width="395.52" height="247.2" fill="none" stroke="none" visibility="hidden"></rect></g></svg></g></svg>